<svg xmlns="http://www.w3.org/2000/svg" version="1.1" width="275" height="275" viewBox="0 0 275 275"><defs><clipPath id="clip-1"><rect x="0" y="25.000000000000007" width="250" height="250"/></clipPath><clipPath id="clip-2"><rect x="0" y="25.000000000000007" width="250" height="250" transform="rotate(116.56505117707799 78.00528500882612 179.51057001765224)"/></clipPath></defs><path fill="none" stroke="#000000" d="M 0,275 L 0,25" style="stroke-width: 2px;opacity: 0.1" stroke-width="2" opacity="0.1"/><path fill="none" stroke="#000000" d="M 35.7143,275 L 35.7143,25" style="stroke-width: 2px;opacity: 0.1" stroke-width="2" opacity="0.1"/><path fill="none" stroke="#000000" d="M 71.4286,275 L 71.4286,25" style="stroke-width: 2px;opacity: 0.1" stroke-width="2" opacity="0.1"/><path fill="none" stroke="#000000" d="M 107.143,275 L 107.143,25" style="stroke-width: 2px;opacity: 0.1" stroke-width="2" opacity="0.1"/><path fill="none" stroke="#000000" d="M 142.857,275 L 142.857,25" style="stroke-width: 2px;opacity: 0.1" stroke-width="2" opacity="0.1"/><path fill="none" stroke="#000000" d="M 178.571,275 L 178.571,25" style="stroke-width: 2px;opacity: 0.1" stroke-width="2" opacity="0.1"/><path fill="none" stroke="#000000" d="M 214.286,275 L 214.286,25" style="stroke-width: 2px;opacity: 0.1" stroke-width="2" opacity="0.1"/><path fill="none" stroke="#000000" d="M 250,275 L 250,25" style="stroke-width: 2px;opacity: 0.1" stroke-width="2" opacity="0.1"/><path fill="none" stroke="#000000" d="M 0,275 L 250,275" style="stroke-width: 2px;opacity: 0.1" stroke-width="2" opacity="0.1"/><path fill="none" stroke="#000000" d="M 0,239.286 L 250,239.286" style="stroke-width: 2px;opacity: 0.1" stroke-width="2" opacity="0.1"/><path fill="none" stroke="#000000" d="M 0,203.571 L 250,203.571" style="stroke-width: 2px;opacity: 0.1" stroke-width="2" opacity="0.1"/><path fill="none" stroke="#000000" d="M 0,167.857 L 250,167.857" style="stroke-width: 2px;opacity: 0.1" stroke-width="2" opacity="0.1"/><path fill="none" stroke="#000000" d="M 0,132.143 L 250,132.143" style="stroke-width: 2px;opacity: 0.1" stroke-width="2" opacity="0.1"/><path fill="none" stroke="#000000" d="M 0,96.4286 L 250,96.4286" style="stroke-width: 2px;opacity: 0.1" stroke-width="2" opacity="0.1"/><path fill="none" stroke="#000000" d="M 0,60.7143 L 250,60.7143" style="stroke-width: 2px;opacity: 0.1" stroke-width="2" opacity="0.1"/><path fill="none" stroke="#000000" d="M 0,25 L 250,25" style="stroke-width: 2px;opacity: 0.1" stroke-width="2" opacity="0.1"/><path fill="none" stroke="#000000" d="M -3.45,209.171 C -3.1,207.071 0.749998,203.921 1.8,203.571 C 0.749998,203.221 -3.1,200.071 -3.45,197.971" transform="rotate(180 1.7999978201729903 203.57142857142858)" style="stroke-width: 2px;opacity: 1;stroke-linejoin: round;stroke-linecap: round" stroke-width="2" opacity="1" stroke-linejoin="round" stroke-linecap="round"/><path fill="none" stroke="#000000" d="M 71.4286,203.571 S 71.4286,203.571 1.05,203.571" style="stroke-width: 2px;opacity: 1" stroke-width="2" opacity="1"/><path fill="none" stroke="#000000" d="M 244.45,209.171 C 244.8,207.071 248.65,203.921 249.7,203.571 C 248.65,203.221 244.8,200.071 244.45,197.971" transform="" style="stroke-width: 2px;opacity: 1;stroke-linejoin: round;stroke-linecap: round" stroke-width="2" opacity="1" stroke-linejoin="round" stroke-linecap="round"/><path fill="none" stroke="#000000" d="M 71.4286,203.571 S 71.4286,203.571 248.95,203.571" style="stroke-width: 2px;opacity: 1" stroke-width="2" opacity="1"/><path fill="none" stroke="#000000" d="M 66.9286,279.55 C 67.2786,277.45 71.1286,274.3 72.1786,273.95 C 71.1286,273.6 67.2786,270.45 66.9286,268.35" transform="rotate(90 72.17857142857143 273.95000217982704)" style="stroke-width: 2px;opacity: 1;stroke-linejoin: round;stroke-linecap: round" stroke-width="2" opacity="1" stroke-linejoin="round" stroke-linecap="round"/><path fill="none" stroke="#000000" d="M 71.4286,203.571 S 71.4286,203.571 71.4286,273.95" style="stroke-width: 2px;opacity: 1" stroke-width="2" opacity="1"/><path fill="none" stroke="#000000" d="M 66.9286,31.65 C 67.2786,29.55 71.1286,26.4 72.1786,26.05 C 71.1286,25.7 67.2786,22.55 66.9286,20.45" transform="rotate(-90 72.17857142857143 26.050002179827032)" style="stroke-width: 2px;opacity: 1;stroke-linejoin: round;stroke-linecap: round" stroke-width="2" opacity="1" stroke-linejoin="round" stroke-linecap="round"/><path fill="none" stroke="#000000" d="M 71.4286,203.571 S 71.4286,203.571 71.4286,26.05" style="stroke-width: 2px;opacity: 1" stroke-width="2" opacity="1"/><path fill="none" stroke="#000000" d="M 107.143,208.571 L 107.143,198.571" style="stroke-width: 1px;opacity: 1" stroke-width="1" opacity="1"/><path fill="none" stroke="#000000" d="M 142.857,208.571 L 142.857,198.571" style="stroke-width: 1px;opacity: 1" stroke-width="1" opacity="1"/><path fill="none" stroke="#000000" d="M 178.571,208.571 L 178.571,198.571" style="stroke-width: 1px;opacity: 1" stroke-width="1" opacity="1"/><path fill="none" stroke="#000000" d="M 214.286,208.571 L 214.286,198.571" style="stroke-width: 1px;opacity: 1" stroke-width="1" opacity="1"/><path fill="none" stroke="#000000" d="M 35.7143,208.571 L 35.7143,198.571" style="stroke-width: 1px;opacity: 1" stroke-width="1" opacity="1"/><path fill="none" stroke="#000000" d="M 66.4286,167.857 L 76.4286,167.857" style="stroke-width: 1px;opacity: 1" stroke-width="1" opacity="1"/><path fill="none" stroke="#000000" d="M 66.4286,132.143 L 76.4286,132.143" style="stroke-width: 1px;opacity: 1" stroke-width="1" opacity="1"/><path fill="none" stroke="#000000" d="M 66.4286,96.4286 L 76.4286,96.4286" style="stroke-width: 1px;opacity: 1" stroke-width="1" opacity="1"/><path fill="none" stroke="#000000" d="M 66.4286,60.7143 L 76.4286,60.7143" style="stroke-width: 1px;opacity: 1" stroke-width="1" opacity="1"/><path fill="none" stroke="#000000" d="M 66.4286,239.286 L 76.4286,239.286" style="stroke-width: 1px;opacity: 1" stroke-width="1" opacity="1"/><path fill="none" stroke="#c55f73" d="M 71.4286,167.857 L 107.143,167.857 L 107.143,96.4286" style="stroke-width: 2px" stroke-width="2" clip-path="url(#clip-1)" stroke-dasharray="6,2"/><path fill="none" stroke="#699c52" d="M 72.7553,185.111 C 73.1053,183.011 76.9553,179.861 78.0053,179.511 C 76.9553,179.161 73.1053,176.011 72.7553,173.911" transform="rotate(-116.56505117707799 78.00528500882612 179.51057001765224)" style="stroke-width: 2px;stroke-linejoin: round;stroke-linecap: round" stroke-width="2" clip-path="url(#clip-2)" stroke-dasharray="0" stroke-linejoin="round" stroke-linecap="round"/><path fill="none" stroke="#699c52" d="M 110.714,246.429 S 110.714,246.429 77.2553,179.511" style="stroke-width: 2px" stroke-width="2" clip-path="url(#clip-1)" stroke-dasharray="0"/><path fill="none" stroke="#29abca" d="M 0,310.714 L 0.5,309.714 L 1,308.714 L 1.5,307.714 L 2,306.714 L 2.5,305.714 L 3,304.714 L 3.5,303.714 L 4,302.714 L 4.5,301.714 L 5,300.714 L 5.5,299.714 L 6,298.714 L 6.5,297.714 L 7,296.714 L 7.5,295.714 L 8,294.714 L 8.5,293.714 L 9,292.714 L 9.5,291.714 L 10,290.714 L 10.5,289.714 L 11,288.714 L 11.5,287.714 L 12,286.714 L 12.5,285.714 L 13,284.714 L 13.5,283.714 L 14,282.714 L 14.5,281.714 L 15,280.714 L 15.5,279.714 L 16,278.714 L 16.5,277.714 L 17,276.714 L 17.5,275.714 L 18,274.714 L 18.5,273.714 L 19,272.714 L 19.5,271.714 L 20,270.714 L 20.5,269.714 L 21,268.714 L 21.5,267.714 L 22,266.714 L 22.5,265.714 L 23,264.714 L 23.5,263.714 L 24,262.714 L 24.5,261.714 L 25,260.714 L 25.5,259.714 L 26,258.714 L 26.5,257.714 L 27,256.714 L 27.5,255.714 L 28,254.714 L 28.5,253.714 L 29,252.714 L 29.5,251.714 L 30,250.714 L 30.5,249.714 L 31,248.714 L 31.5,247.714 L 32,246.714 L 32.5,245.714 L 33,244.714 L 33.5,243.714 L 34,242.714 L 34.5,241.714 L 35,240.714 L 35.5,239.714 L 36,238.714 L 36.5,237.714 L 37,236.714 L 37.5,235.714 L 38,234.714 L 38.5,233.714 L 39,232.714 L 39.5,231.714 L 40,230.714 L 40.5,229.714 L 41,228.714 L 41.5,227.714 L 42,226.714 L 42.5,225.714 L 43,224.714 L 43.5,223.714 L 44,222.714 L 44.5,221.714 L 45,220.714 L 45.5,219.714 L 46,218.714 L 46.5,217.714 L 47,216.714 L 47.5,215.714 L 48,214.714 L 48.5,213.714 L 49,212.714 L 49.5,211.714 L 50,210.714 L 50.5,209.714 L 51,208.714 L 51.5,207.714 L 52,206.714 L 52.5,205.714 L 53,204.714 L 53.5,203.714 L 54,202.714 L 54.5,201.714 L 55,200.714 L 55.5,199.714 L 56,198.714 L 56.5,197.714 L 57,196.714 L 57.5,195.714 L 58,194.714 L 58.5,193.714 L 59,192.714 L 59.5,191.714 L 60,190.714 L 60.5,189.714 L 61,188.714 L 61.5,187.714 L 62,186.714 L 62.5,185.714 L 63,184.714 L 63.5,183.714 L 64,182.714 L 64.5,181.714 L 65,180.714 L 65.5,179.714 L 66,178.714 L 66.5,177.714 L 67,176.714 L 67.5,175.714 L 68,174.714 L 68.5,173.714 L 69,172.714 L 69.5,171.714 L 70,170.714 L 70.5,169.714 L 71,168.714 L 71.5,167.714 L 72,166.714 L 72.5,165.714 L 73,164.714 L 73.5,163.714 L 74,162.714 L 74.5,161.714 L 75,160.714 L 75.5,159.714 L 76,158.714 L 76.5,157.714 L 77,156.714 L 77.5,155.714 L 78,154.714 L 78.5,153.714 L 79,152.714 L 79.5,151.714 L 80,150.714 L 80.5,149.714 L 81,148.714 L 81.5,147.714 L 82,146.714 L 82.5,145.714 L 83,144.714 L 83.5,143.714 L 84,142.714 L 84.5,141.714 L 85,140.714 L 85.5,139.714 L 86,138.714 L 86.5,137.714 L 87,136.714 L 87.5,135.714 L 88,134.714 L 88.5,133.714 L 89,132.714 L 89.5,131.714 L 90,130.714 L 90.5,129.714 L 91,128.714 L 91.5,127.714 L 92,126.714 L 92.5,125.714 L 93,124.714 L 93.5,123.714 L 94,122.714 L 94.5,121.714 L 95,120.714 L 95.5,119.714 L 96,118.714 L 96.5,117.714 L 97,116.714 L 97.5,115.714 L 98,114.714 L 98.5,113.714 L 99,112.714 L 99.5,111.714 L 100,110.714 L 100.5,109.714 L 101,108.714 L 101.5,107.714 L 102,106.714 L 102.5,105.714 L 103,104.714 L 103.5,103.714 L 104,102.714 L 104.5,101.714 L 105,100.714 L 105.5,99.7143 L 106,98.7143 L 106.5,97.7143 L 107,96.7143 L 107.5,95.7143 L 108,94.7143 L 108.5,93.7143 L 109,92.7143 L 109.5,91.7143 L 110,90.7143 L 110.5,89.7143 L 111,88.7143 L 111.5,87.7143 L 112,86.7143 L 112.5,85.7143 L 113,84.7143 L 113.5,83.7143 L 114,82.7143 L 114.5,81.7143 L 115,80.7143 L 115.5,79.7143 L 116,78.7143 L 116.5,77.7143 L 117,76.7143 L 117.5,75.7143 L 118,74.7143 L 118.5,73.7143 L 119,72.7143 L 119.5,71.7143 L 120,70.7143 L 120.5,69.7143 L 121,68.7143 L 121.5,67.7143 L 122,66.7143 L 122.5,65.7143 L 123,64.7143 L 123.5,63.7143 L 124,62.7143 L 124.5,61.7143 L 125,60.7143 L 125.5,59.7143 L 126,58.7143 L 126.5,57.7143 L 127,56.7143 L 127.5,55.7143 L 128,54.7143 L 128.5,53.7143 L 129,52.7143 L 129.5,51.7143 L 130,50.7143 L 130.5,49.7143 L 131,48.7143 L 131.5,47.7143 L 132,46.7143 L 132.5,45.7143 L 133,44.7143 L 133.5,43.7143 L 134,42.7143 L 134.5,41.7143 L 135,40.7143 L 135.5,39.7143 L 136,38.7143 L 136.5,37.7143 L 137,36.7143 L 137.5,35.7143 L 138,34.7143 L 138.5,33.7143 L 139,32.7143 L 139.5,31.7143 L 140,30.7143 L 140.5,29.7143 L 141,28.7143 L 141.5,27.7143 L 142,26.7143 L 142.5,25.7143 L 143,24.7143 L 143.5,23.7143 L 144,22.7143 L 144.5,21.7143 L 145,20.7143 L 145.5,19.7143 L 146,18.7143 L 146.5,17.7143 L 147,16.7143 L 147.5,15.7143 L 148,14.7143 L 148.5,13.7143 L 149,12.7143 L 149.5,11.7143 L 150,10.7143 L 150.5,9.71429 L 151,8.71429 L 151.5,7.71429 L 152,6.71429 L 152.5,5.71429 L 153,4.71429 L 153.5,3.71429 L 154,2.71429 L 154.5,1.71429 L 155,0.714286 L 155.5,-0.285714 L 156,-1.28571 L 156.5,-2.28571 L 157,-3.28571 L 157.5,-4.28571 L 158,-5.28571 L 158.5,-6.28571 L 159,-7.28571 L 159.5,-8.28571 L 160,-9.28571 L 160.5,-10.2857 L 161,-11.2857 L 161.5,-12.2857 L 162,-13.2857 L 162.5,-14.2857 L 163,-15.2857 L 163.5,-16.2857 L 164,-17.2857 L 164.5,-18.2857 L 165,-19.2857 L 165.5,-20.2857 L 166,-21.2857 L 166.5,-22.2857 L 167,-23.2857 L 167.5,-24.2857 L 168,-25.2857 L 168.5,-26.2857 L 169,-27.2857 L 169.5,-28.2857 L 170,-29.2857 L 170.5,-30.2857 L 171,-31.2857 L 171.5,-32.2857 L 172,-33.2857 L 172.5,-34.2857 L 173,-35.2857 L 173.5,-36.2857 L 174,-37.2857 L 174.5,-38.2857 L 175,-39.2857 L 175.5,-40.2857 L 176,-41.2857 L 176.5,-42.2857 L 177,-43.2857 L 177.5,-44.2857 L 178,-45.2857 L 178.5,-46.2857 L 179,-47.2857 L 179.5,-48.2857 L 180,-49.2857 L 180.5,-50.2857 L 181,-51.2857 L 181.5,-52.2857 L 182,-53.2857 L 182.5,-54.2857 L 183,-55.2857 L 183.5,-56.2857 L 184,-57.2857 L 184.5,-58.2857 L 185,-59.2857 L 185.5,-60.2857 L 186,-61.2857 L 186.5,-62.2857 L 187,-63.2857 L 187.5,-64.2857 L 188,-65.2857 L 188.5,-66.2857 L 189,-67.2857 L 189.5,-68.2857 L 190,-69.2857 L 190.5,-70.2857 L 191,-71.2857 L 191.5,-72.2857 L 192,-73.2857 L 192.5,-74.2857 L 193,-75.2857 L 193.5,-76.2857 L 194,-77.2857 L 194.5,-78.2857 L 195,-79.2857 L 195.5,-80.2857 L 196,-81.2857 L 196.5,-82.2857 L 197,-83.2857 L 197.5,-84.2857 L 198,-85.2857 L 198.5,-86.2857 L 199,-87.2857 L 199.5,-88.2857 L 200,-89.2857 L 200.5,-90.2857 L 201,-91.2857 L 201.5,-92.2857 L 202,-93.2857 L 202.5,-94.2857 L 203,-95.2857 L 203.5,-96.2857 L 204,-97.2857 L 204.5,-98.2857 L 205,-99.2857 L 205.5,-100.286 L 206,-101.286 L 206.5,-102.286 L 207,-103.286 L 207.5,-104.286 L 208,-105.286 L 208.5,-106.286 L 209,-107.286 L 209.5,-108.286 L 210,-109.286 L 210.5,-110.286 L 211,-111.286 L 211.5,-112.286 L 212,-113.286 L 212.5,-114.286 L 213,-115.286 L 213.5,-116.286 L 214,-117.286 L 214.5,-118.286 L 215,-119.286 L 215.5,-120.286 L 216,-121.286 L 216.5,-122.286 L 217,-123.286 L 217.5,-124.286 L 218,-125.286 L 218.5,-126.286 L 219,-127.286 L 219.5,-128.286 L 220,-129.286 L 220.5,-130.286 L 221,-131.286 L 221.5,-132.286 L 222,-133.286 L 222.5,-134.286 L 223,-135.286 L 223.5,-136.286 L 224,-137.286 L 224.5,-138.286 L 225,-139.286 L 225.5,-140.286 L 226,-141.286 L 226.5,-142.286 L 227,-143.286 L 227.5,-144.286 L 228,-145.286 L 228.5,-146.286 L 229,-147.286 L 229.5,-148.286 L 230,-149.286 L 230.5,-150.286 L 231,-151.286 L 231.5,-152.286 L 232,-153.286 L 232.5,-154.286 L 233,-155.286 L 233.5,-156.286 L 234,-157.286 L 234.5,-158.286 L 235,-159.286 L 235.5,-160.286 L 236,-161.286 L 236.5,-162.286 L 237,-163.286 L 237.5,-164.286 L 238,-165.286 L 238.5,-166.286 L 239,-167.286 L 239.5,-168.286 L 240,-169.286 L 240.5,-170.286 L 241,-171.286 L 241.5,-172.286 L 242,-173.286 L 242.5,-174.286 L 243,-175.286 L 243.5,-176.286 L 244,-177.286 L 244.5,-178.286 L 245,-179.286 L 245.5,-180.286 L 246,-181.286 L 246.5,-182.286 L 247,-183.286 L 247.5,-184.286 L 248,-185.286 L 248.5,-186.286 L 249,-187.286 L 249.5,-188.286 L 250,-189.286" style="stroke-width: 3px" stroke-width="3" clip-path="url(#clip-1)" stroke-dasharray="0"/><ellipse cx="71.42857142857143" cy="167.85714285714286" rx="4" ry="4" fill="#77b05d" stroke="#77b05d" style="stroke-width: 2px;stroke-opacity: 1;fill-opacity: 1" stroke-width="2" clip-path="url(#clip-1)" stroke-dasharray="0" stroke-opacity="1" fill-opacity="1"/></svg>